<?xml version="1.0" standalone="no"?>
<!DOCTYPE svg PUBLIC "-//W3C//DTD SVG 20010904//EN"
 "http://www.w3.org/TR/2001/REC-SVG-20010904/DTD/svg10.dtd">
<svg version="1.0" xmlns="http://www.w3.org/2000/svg"
 width="1920.000000pt" height="1920.000000pt" viewBox="0 0 1920.000000 1920.000000"
 preserveAspectRatio="xMidYMid meet">

<g transform="translate(0.000000,1920.000000) scale(0.100000,-0.100000)"
fill="#11998e" stroke="none">
<path d="M7779 15845 c-182 -29 -300 -86 -410 -195 -135 -134 -199 -303 -202
-532 l-2 -128 -50 0 c-95 -1 -177 -59 -224 -160 -23 -49 -26 -68 -26 -165 0
-60 4 -129 8 -152 l8 -41 -88 -7 c-438 -32 -744 -215 -912 -545 -87 -171 -141
-382 -141 -556 0 -322 167 -620 414 -741 l58 -28 -6 -50 c-3 -27 -6 -83 -6
-122 l0 -73 -1337 -2 -1338 -3 -59 -23 c-201 -76 -326 -255 -326 -464 0 -89
257 -1521 285 -1591 83 -204 277 -372 491 -427 71 -18 112 -20 484 -20 l408 0
96 -285 c53 -158 96 -288 96 -290 0 -2 -197 -5 -437 -8 -482 -4 -486 -5 -693
-73 -360 -120 -670 -396 -840 -749 -89 -185 -128 -343 -136 -550 -5 -103 5
-330 36 -868 l43 -728 -58 -121 c-331 -701 -435 -1371 -289 -1876 32 -111 108
-270 176 -369 63 -92 190 -222 271 -277 l57 -39 0 -59 0 -58 -1075 0 c-1062 0
-1075 0 -1095 -20 -26 -26 -26 -64 0 -90 20 -20 33 -20 8640 -20 8607 0 8620
0 8640 20 26 26 26 64 0 90 -20 20 -33 20 -1700 20 l-1680 0 0 236 0 237 239
741 c285 883 584 1810 762 2362 71 220 129 412 129 426 0 14 -8 32 -18 41 -17
16 -171 17 -2012 17 l-1993 0 -324 318 c-178 174 -345 332 -371 350 -315 223
-1277 499 -1915 550 -59 5 -109 11 -111 13 -1 2 -29 50 -61 107 l-58 103 12
177 c19 291 16 275 70 302 147 71 317 215 423 360 252 346 389 808 465 1580
22 220 25 826 5 965 -19 134 -51 289 -73 352 -10 31 -19 57 -19 58 0 1 26 12
59 24 140 51 235 178 256 342 7 53 9 56 53 79 26 14 81 50 122 81 290 217 447
528 467 926 12 246 -34 403 -170 581 -124 163 -393 299 -682 343 -104 16 -368
14 -470 -3 l-80 -14 0 121 c0 109 -2 125 -27 177 -70 150 -232 232 -458 231
-85 -1 -121 -6 -187 -27 -90 -29 -203 -99 -267 -165 l-40 -41 -21 68 c-29 92
-65 149 -133 214 -108 103 -232 147 -437 153 -84 3 -160 -1 -216 -10z m1863
-2930 c42 -63 118 -121 180 -137 46 -11 49 -14 69 -67 28 -76 56 -195 76 -331
25 -164 25 -751 0 -1000 -59 -582 -148 -949 -304 -1265 -129 -258 -319 -459
-525 -555 -312 -145 -697 -125 -1209 61 -135 49 -141 50 -165 34 -59 -38 -45
-75 63 -167 263 -224 556 -401 811 -488 102 -34 270 -70 333 -70 29 0 41 -5
46 -17 3 -10 30 -61 59 -114 30 -52 54 -102 54 -110 0 -20 -85 -228 -146 -359
-81 -173 -182 -359 -249 -461 -77 -116 -214 -250 -304 -298 -75 -39 -69 -40
-276 44 -392 159 -725 361 -1027 622 -110 95 -292 282 -356 365 l-42 55 46 69
c132 197 221 465 271 814 15 103 18 194 18 521 l0 397 55 6 c71 7 155 32 175
52 20 20 19 68 -1 88 -19 20 -55 20 -114 2 -211 -64 -417 8 -530 184 -67 105
-100 260 -81 384 23 157 79 252 175 300 50 25 70 30 135 29 86 0 198 -28 210
-52 5 -9 27 -96 51 -194 36 -152 45 -180 66 -194 30 -19 84 -12 150 18 80 38
126 103 255 363 143 288 152 321 153 546 0 165 -11 268 -50 471 l-24 126 45
96 c25 54 47 97 50 97 2 0 37 -21 76 -46 222 -144 473 -217 744 -217 229 0
411 45 600 148 104 57 259 172 335 249 30 31 58 55 61 54 4 -2 22 -25 41 -53z
m-2026 -637 c24 -174 25 -419 2 -504 -9 -33 -65 -159 -125 -280 -81 -165 -119
-230 -151 -263 -24 -24 -47 -39 -51 -35 -5 5 -20 63 -35 129 -52 227 -50 223
-109 251 -134 62 -340 72 -448 22 -31 -14 -75 -43 -99 -64 l-42 -38 7 40 c4
21 23 77 43 123 44 105 39 127 -32 153 -74 26 -115 71 -130 145 l-7 31 87 -30
c106 -37 277 -49 390 -28 231 43 451 190 615 411 29 38 55 69 59 69 4 0 16
-60 26 -132z m-3965 -71 c-6 -8 -7 -18 -3 -22 4 -5 2 -5 -5 -1 -7 3 -27 -10
-48 -31 -77 -79 -115 -176 -115 -295 0 -39 35 -263 85 -550 47 -265 97 -548
111 -628 54 -306 63 -347 92 -410 30 -66 102 -169 143 -205 12 -11 19 -14 14
-6 -4 8 11 -5 33 -27 40 -40 53 -47 77 -42 6 1 7 -2 3 -6 -4 -4 0 -13 10 -20
15 -12 14 -13 -10 -14 -193 -2 -431 181 -499 384 -10 28 -75 375 -144 771
-144 816 -143 807 -84 923 43 83 113 143 201 171 76 24 157 28 139 8z m2610
-29 c12 -24 28 -50 35 -59 9 -10 15 -47 18 -105 5 -137 47 -224 139 -290 l29
-20 -21 -65 c-32 -94 -37 -192 -16 -264 14 -48 15 -69 6 -115 -36 -194 -11
-367 73 -511 32 -53 33 -59 28 -132 -8 -123 40 -212 145 -274 l43 -25 0 -66
c0 -111 46 -168 158 -196 l47 -12 0 -45 0 -44 -1171 -3 -1170 -2 -64 44 c-35
25 -68 42 -74 39 -5 -3 -6 -1 -3 4 8 13 -17 36 -28 25 -5 -4 -6 -2 -2 3 3 6
-16 38 -41 71 -98 126 -97 121 -241 940 -72 408 -131 761 -131 785 0 99 49
222 118 296 22 23 36 46 33 49 -3 4 -1 5 4 1 6 -3 17 -2 25 4 9 5 430 9 1027
9 l1013 0 21 -42z m444 -1628 c10 -16 83 -51 155 -74 l65 -21 6 -65 c4 -36 7
-98 8 -137 1 -80 -7 -89 -50 -54 -27 22 -30 67 -10 129 12 36 12 44 -2 65 -9
14 -28 28 -44 31 -66 17 -153 89 -153 129 0 11 18 9 25 -3z m235 -753 c0 -91
-36 -353 -66 -490 l-16 -67 -860 2 -861 3 -94 280 c-51 154 -93 283 -93 287 0
5 448 8 995 8 l995 0 0 -23z m-124 -690 c7 -7 -69 -178 -115 -259 -75 -130
-57 -121 -343 -189 -732 -174 -1154 -310 -1544 -498 -347 -167 -668 -386 -925
-629 l-97 -92 -6 32 c-3 17 -9 114 -12 217 -5 148 -3 209 10 300 17 115 59
261 102 359 12 28 21 52 18 52 -3 0 0 6 6 13 6 6 29 44 52 82 57 97 118 175
215 277 46 47 83 84 83 82 0 -2 24 15 53 39 69 56 153 107 274 165 l98 47
1020 5 c1060 5 1103 5 1111 -3z m-2716 -29 c-76 -34 -211 -104 -250 -131 -93
-63 -159 -120 -153 -131 3 -6 2 -8 -2 -3 -11 9 -116 -94 -108 -107 3 -5 1 -6
-5 -2 -22 13 -178 -217 -234 -344 -40 -89 -86 -238 -104 -335 -23 -121 -21
-301 10 -810 l25 -410 -92 -152 c-50 -83 -93 -150 -95 -148 -8 7 -71 1158 -72
1286 0 208 41 389 130 574 136 282 391 526 673 644 95 39 234 80 272 80 l30 0
-25 -11z m5303 -463 c70 -5 97 -10 97 -20 0 -21 -72 -107 -141 -166 -70 -61
-137 -102 -200 -124 -41 -15 -41 -15 -36 8 3 12 30 80 60 151 31 72 58 138 61
149 4 15 11 18 33 14 15 -3 72 -9 126 -12z m247 -30 c210 -34 633 -128 698
-155 21 -9 22 -14 22 -134 0 -99 -5 -139 -23 -202 -55 -190 -182 -339 -369
-430 -31 -15 -54 -32 -51 -37 3 -6 1 -7 -6 -3 -6 4 -39 -2 -74 -13 -219 -72
-490 -80 -729 -20 -113 28 -295 97 -326 124 -1 1 20 36 47 77 54 82 133 221
208 368 37 73 53 96 71 98 12 2 20 8 17 13 -3 5 0 6 8 4 40 -16 278 138 260
168 -3 6 -1 7 4 4 13 -8 94 77 117 121 9 18 20 32 24 32 4 0 50 -7 102 -15z
m-2959 -87 c143 -178 379 -397 591 -550 54 -38 100 -73 103 -77 2 -4 -22 1
-53 12 -42 14 -74 18 -122 15 -168 -12 -307 -119 -617 -475 -73 -83 -172 -187
-220 -232 -310 -290 -566 -290 -863 0 -100 98 -172 194 -226 304 -59 121 -78
198 -78 320 -1 123 20 212 77 326 51 102 52 102 317 184 137 42 971 261 1011
264 3 1 39 -41 80 -91z m3865 -129 c207 -66 499 -184 549 -222 20 -15 20 -16
-3 -39 -12 -14 -21 -26 -20 -29 2 -2 1 -3 -1 -2 -2 2 -45 -37 -95 -85 -105
-100 -208 -180 -283 -219 -33 -18 -53 -35 -53 -45 0 -10 5 -18 11 -18 5 0 7 5
3 12 -4 6 -3 8 4 4 30 -18 343 218 325 247 -4 6 -1 7 6 2 9 -5 38 17 86 65 62
62 76 71 96 65 20 -7 577 -545 587 -567 2 -5 -306 -8 -685 -8 -536 0 -693 -3
-705 -12 -10 -8 -134 -376 -305 -908 l-288 -895 -90 -34 c-270 -100 -499 -74
-725 83 -35 25 -68 42 -72 40 -5 -3 -7 -2 -6 3 2 5 -28 38 -65 73 -67 62 -200
218 -266 312 -19 26 -38 45 -44 41 -6 -3 -7 -1 -3 5 4 7 -8 33 -26 59 -18 27
-69 107 -114 180 -45 73 -85 129 -89 125 -5 -4 -5 -2 -1 5 3 6 -11 40 -32 75
-21 35 -73 125 -116 201 -43 75 -81 137 -85 137 -4 0 -8 6 -8 13 0 30 -236
401 -340 535 -37 46 -102 120 -147 164 -44 45 -71 76 -60 70 10 -5 54 -31 98
-57 268 -158 730 -354 793 -336 84 24 211 109 310 207 74 72 74 72 103 57 16
-8 35 -11 41 -7 7 4 9 3 6 -3 -7 -12 111 -60 223 -92 293 -82 643 -63 882 49
86 39 190 108 183 120 -3 5 0 7 8 4 19 -7 117 101 166 184 22 37 49 95 60 129
25 76 42 221 34 297 -5 46 -3 56 9 56 9 0 73 -18 144 -41z m-5311 -231 c-18
-40 -41 -102 -51 -138 -24 -88 -25 -272 -1 -360 26 -99 108 -255 185 -350 79
-98 216 -225 232 -215 6 4 9 1 8 -6 -2 -7 30 -32 71 -56 76 -43 177 -73 250
-73 142 0 293 77 463 235 100 94 368 397 361 409 -3 6 -3 8 2 4 4 -4 52 34
105 86 145 138 251 196 361 196 58 0 142 -30 198 -71 23 -16 47 -27 54 -23 7
4 9 3 4 -1 -9 -11 53 -76 65 -69 5 3 7 1 6 -4 -2 -5 21 -35 50 -68 128 -142
241 -317 532 -819 300 -518 431 -712 603 -892 298 -311 596 -401 935 -281 46
16 86 28 88 26 2 -2 -21 -78 -51 -168 -29 -91 -92 -285 -140 -432 l-86 -268
-62 32 c-34 17 -117 54 -185 82 l-124 51 -62 135 c-80 174 -150 283 -234 362
-132 124 -262 168 -499 168 -310 0 -573 -80 -710 -215 -50 -50 -65 -72 -78
-119 -16 -53 -15 -98 1 -141 4 -10 -10 -15 -53 -19 -32 -4 -73 -8 -90 -11 -30
-3 -34 0 -51 38 -10 23 -25 47 -33 54 -8 6 -66 16 -129 23 -63 6 -118 15 -122
18 -3 4 -2 30 2 57 13 78 11 193 -5 270 -48 227 -204 354 -475 391 -123 16
-407 18 -534 4 -49 -6 -90 -9 -92 -7 -2 2 12 40 30 84 45 105 96 266 96 300 0
55 -68 85 -102 46 -9 -10 -37 -81 -63 -158 -25 -77 -65 -178 -88 -224 l-42
-85 -95 -26 c-168 -48 -211 -65 -502 -201 -92 -43 -195 -88 -230 -100 -75 -26
-168 -29 -220 -6 -143 61 -316 357 -385 659 -12 51 -17 120 -17 233 0 194 15
281 108 606 89 310 100 368 101 529 0 74 -3 156 -7 182 l-8 48 78 45 c163 96
611 303 659 305 7 0 -2 -29 -22 -72z m-735 -345 c3 -21 5 -96 4 -168 -1 -148
-13 -218 -81 -452 -116 -401 -139 -526 -130 -723 8 -191 44 -330 134 -520 88
-185 176 -298 269 -345 49 -25 69 -29 129 -29 90 2 148 22 388 135 235 112
518 219 535 204 6 -6 -31 -70 -92 -159 -75 -110 -195 -238 -289 -309 -117 -88
-121 -89 -305 -99 -295 -14 -352 -28 -352 -83 0 -13 8 -33 18 -46 l19 -22 169
12 c93 6 206 14 252 17 45 3 82 4 82 1 0 -2 -16 -31 -35 -63 -43 -71 -46 -119
-10 -180 24 -40 60 -71 78 -66 4 1 6 -3 5 -10 -4 -16 85 -74 150 -98 70 -26
160 -26 211 0 92 47 146 157 158 324 l6 89 161 -7 c337 -14 984 -60 994 -71 8
-8 -67 -192 -121 -295 -53 -100 -140 -237 -213 -331 -24 -31 -40 -60 -36 -64
4 -3 2 -5 -3 -3 -6 1 -30 -19 -55 -47 -107 -119 -104 -115 -186 -187 -128
-112 -146 -126 -152 -129 -4 -1 -32 -19 -62 -39 -31 -21 -97 -60 -148 -87 -51
-27 -89 -53 -84 -58 4 -4 2 -5 -4 -2 -6 3 -56 -9 -110 -28 -54 -19 -142 -42
-194 -51 -215 -37 -459 12 -626 127 -26 18 -53 32 -60 32 -7 0 -12 3 -11 7 1
4 -27 31 -63 62 -85 72 -129 124 -283 337 -70 97 -160 220 -199 273 -39 54
-74 96 -78 93 -4 -3 -7 3 -6 13 0 9 -5 16 -12 14 -8 -1 -11 2 -8 7 7 11 -199
283 -375 496 -187 226 -456 492 -487 480 -7 -2 -11 -1 -8 4 9 14 -87 70 -166
98 -57 20 -85 24 -129 20 -69 -6 -129 -33 -129 -57 0 -16 3 -16 43 4 31 15 61
21 113 21 64 0 80 -4 157 -44 89 -45 235 -159 319 -249 26 -27 49 -47 52 -44
3 3 6 0 6 -7 0 -19 72 -91 83 -84 6 3 7 2 4 -4 -4 -5 2 -19 11 -29 50 -55 254
-308 357 -444 65 -85 121 -154 125 -153 3 1 7 -4 7 -11 0 -6 31 -55 70 -107
38 -51 114 -155 168 -229 54 -74 102 -134 107 -132 5 1 7 -2 4 -7 -16 -26 182
-245 309 -341 87 -66 223 -131 335 -161 113 -30 316 -33 435 -5 331 77 660
302 949 646 149 177 307 446 368 624 l23 68 100 -6 c78 -5 103 -10 113 -23 17
-23 49 -135 69 -236 29 -155 27 -643 -4 -798 l-5 -28 -204 -3 c-245 -4 -240
-2 -237 -107 3 -90 42 -211 94 -291 l40 -63 -31 -32 c-64 -66 -52 -65 -1356
-65 l-1160 0 -52 103 c-66 133 -134 236 -206 314 -168 182 -278 117 -396 -236
-22 -65 -40 -126 -40 -135 0 -24 -41 -20 -161 13 -582 164 -888 583 -889 1216
0 434 136 933 400 1464 295 593 654 1053 1094 1406 106 85 294 215 311 215 6
0 13 -17 15 -37z m2125 -1857 c210 -43 347 -164 386 -338 16 -70 18 -217 6
-292 l-9 -49 -86 7 c-390 30 -647 47 -877 56 -222 9 -282 15 -338 32 -67 20
-92 20 -187 2 -34 -7 -32 -4 61 92 129 134 208 243 325 454 19 34 23 35 104
47 115 16 521 9 615 -11z m1950 -367 c39 -13 76 -23 83 -22 7 0 11 -1 8 -4 -3
-3 21 -22 52 -43 105 -68 187 -177 283 -373 66 -136 70 -153 37 -143 -103 31
-346 88 -448 105 -244 41 -396 53 -715 56 l-310 3 -12 33 c-17 45 -8 104 25
159 14 25 25 50 23 55 -1 6 0 7 4 3 4 -3 28 10 53 29 66 51 171 98 282 128
138 36 215 44 400 41 142 -3 175 -6 235 -27z m-2841 -365 l46 -7 0 -56 c0 -31
-7 -85 -15 -120 -16 -66 -61 -161 -77 -161 -5 0 -6 -6 -2 -12 4 -7 4 -10 0 -6
-4 3 -24 -5 -43 -18 -57 -38 -140 -34 -233 12 -39 20 -99 62 -132 93 -49 46
-60 63 -65 97 -6 49 13 94 61 148 l34 36 189 0 c105 0 211 -3 237 -6z m2376
-194 c500 -31 915 -128 1235 -287 50 -25 91 -46 92 -47 2 -2 -12 -47 -31 -102
-23 -68 -38 -98 -47 -95 -204 52 -332 75 -650 116 -246 31 -351 33 -379 5 -27
-27 -25 -56 5 -85 22 -23 32 -25 113 -25 160 0 359 -46 494 -114 102 -51 169
-100 247 -180 76 -79 75 -76 50 -143 -8 -22 -13 -23 -135 -23 l-127 0 -53 58
c-95 106 -251 167 -449 178 -112 6 -143 -4 -159 -48 -7 -20 -5 -33 8 -52 15
-24 22 -26 95 -26 112 0 224 -24 309 -65 39 -20 72 -39 72 -43 0 -6 -1380 -5
-1386 1 -2 1 4 63 12 137 26 251 15 595 -26 774 -6 27 -9 50 -7 52 7 7 273 21
417 22 74 1 209 -3 300 -8z m1154 -640 c69 -22 73 -27 53 -72 l-12 -26 -65 59
c-36 32 -60 59 -54 59 7 0 42 -9 78 -20z m-5202 -423 c9 -1 16 -4 15 -7 -1 -3
23 -30 53 -61 30 -30 77 -88 103 -128 56 -82 147 -249 147 -269 0 -11 -55 -13
-305 -10 -185 2 -308 7 -314 13 -12 12 61 239 108 337 18 37 48 81 66 97 19
16 32 31 29 33 -2 2 15 2 39 0 23 -2 50 -5 59 -5z m-733 -472 c2 -3 -14 -5
-37 -5 -35 0 -42 3 -42 20 0 19 1 20 37 5 20 -9 39 -18 42 -20z"/>
<path d="M9525 12410 c-174 -35 -303 -128 -368 -268 -27 -58 -31 -79 -35 -171
-3 -88 3 -149 37 -361 22 -140 52 -340 66 -445 24 -174 25 -190 10 -201 -22
-17 -164 -54 -204 -54 -37 0 -81 -38 -81 -70 0 -34 35 -60 83 -60 42 0 161 30
267 67 96 34 95 29 56 313 -19 135 -51 351 -71 480 -44 284 -45 383 -2 466 28
56 77 103 135 133 51 26 150 51 202 51 42 0 79 14 92 34 14 20 8 63 -10 79
-20 18 -103 21 -177 7z"/>
<path d="M8510 12379 c-68 -11 -178 -65 -203 -100 -22 -31 -10 -73 26 -90 20
-9 36 -5 102 27 65 32 88 38 144 38 57 1 76 -4 134 -34 64 -33 69 -34 95 -19
20 11 28 24 30 51 3 33 -1 40 -38 67 -75 54 -187 77 -290 60z"/>
<path d="M8615 12108 c-40 -22 -68 -54 -91 -103 -30 -62 -31 -128 -4 -172 17
-28 25 -33 58 -33 54 0 100 34 134 99 68 130 5 266 -97 209z"/>
<path d="M9534 12101 c-43 -26 -83 -81 -100 -138 -35 -115 33 -197 124 -149
95 49 148 221 87 281 -29 30 -68 32 -111 6z"/>
<path d="M6799 11353 c-124 -133 -152 -285 -81 -437 39 -83 124 -176 161 -176
70 1 88 74 31 125 -32 29 -78 97 -86 128 -6 25 -4 27 22 27 16 0 48 -9 71 -19
52 -24 81 -76 90 -162 10 -95 56 -127 108 -74 28 27 29 35 15 124 -25 153
-110 236 -262 256 -27 3 -48 10 -48 14 0 13 56 96 80 116 32 28 42 62 29 88
-29 55 -73 51 -130 -10z"/>
<path d="M8600 10623 c-24 -31 -22 -51 17 -132 67 -139 203 -211 401 -211 85
0 95 2 117 25 28 27 30 37 14 68 -18 34 -28 37 -130 37 -105 0 -160 14 -220
56 -35 24 -89 107 -89 136 0 23 -33 48 -63 48 -16 0 -33 -10 -47 -27z"/>
<path d="M11770 13703 c-40 -14 -40 -7 -40 -823 0 -750 1 -788 18 -803 17 -16
101 -17 1010 -17 l991 0 15 22 c14 20 16 113 16 801 l0 778 -25 24 -24 25
-973 -1 c-535 0 -980 -3 -988 -6z m1878 -1000 l-3 -518 -892 -3 -893 -2 0 520
0 520 895 0 895 0 -2 -517z"/>
<path d="M12190 12967 c-127 -35 -190 -125 -190 -272 0 -85 19 -147 61 -198
49 -60 100 -81 194 -82 70 0 86 4 127 28 101 59 136 208 46 195 -15 -2 -31
-19 -49 -53 -14 -27 -39 -58 -55 -67 -60 -37 -150 -14 -191 49 -14 21 -18 47
-18 123 0 81 3 100 23 131 57 93 176 90 236 -6 34 -53 59 -64 88 -39 15 14 19
27 15 51 -17 101 -166 173 -287 140z"/>
<path d="M12745 12975 c-5 -2 -27 -6 -48 -10 -51 -8 -104 -57 -118 -107 -9
-33 -7 -49 6 -84 21 -55 58 -79 177 -113 69 -20 96 -32 111 -53 52 -70 -51
-144 -146 -105 -27 12 -43 28 -59 62 -27 55 -59 68 -91 37 -18 -19 -19 -25 -9
-60 17 -56 77 -107 141 -121 69 -15 98 -14 158 4 94 28 147 116 123 204 -14
54 -57 87 -143 111 -138 40 -162 52 -165 86 -4 40 25 65 82 71 48 6 52 3 129
-86 20 -25 40 -27 61 -5 39 39 -7 131 -77 153 -38 12 -118 22 -132 16z"/>
<path d="M13220 12969 c-108 -22 -168 -125 -122 -209 25 -45 62 -67 174 -99
100 -29 137 -58 123 -100 -28 -89 -169 -91 -214 -4 -26 52 -45 67 -75 59 -53
-13 -40 -92 24 -149 52 -48 127 -65 213 -49 89 17 140 60 157 135 20 93 -26
154 -142 187 -169 49 -195 68 -163 116 44 68 149 52 191 -28 18 -35 50 -45 75
-22 41 37 8 114 -63 147 -44 20 -123 27 -178 16z"/>
<path d="M11750 11820 c-20 -20 -20 -33 -20 -1935 0 -1902 0 -1915 20 -1935
20 -20 33 -20 2990 -20 2957 0 2970 0 2990 20 20 20 20 33 20 1935 0 1902 0
1915 -20 1935 -20 20 -33 20 -2990 20 -2957 0 -2970 0 -2990 -20z m938 -2267
l2 -1493 -415 0 -415 0 0 1495 0 1495 413 -2 412 -3 3 -1492z m4932 2 l0
-1495 -2400 0 -2400 0 0 1495 0 1495 2400 0 2400 0 0 -1495z"/>
<path d="M12118 10041 c-44 -39 -46 -98 -5 -138 l27 -28 175 0 175 0 27 28
c41 40 39 99 -5 138 l-32 29 -165 0 -165 0 -32 -29z"/>
<path d="M12131 9618 c-59 -40 -65 -106 -14 -154 25 -23 30 -24 189 -24 101 0
173 4 188 11 14 7 32 27 42 47 21 44 10 87 -29 116 -26 19 -44 21 -185 24
-150 3 -159 2 -191 -20z"/>
<path d="M12117 9236 c-49 -45 -46 -111 7 -150 24 -18 45 -21 169 -24 168 -4
211 6 240 56 17 29 18 39 8 72 -19 64 -37 70 -229 70 -165 0 -170 -1 -195 -24z"/>
<path d="M12143 8835 c-40 -17 -69 -71 -59 -110 4 -15 19 -38 33 -51 25 -23
30 -24 195 -24 191 0 210 6 229 69 15 50 -8 97 -56 117 -47 19 -297 19 -342
-1z"/>
<path d="M13040 10933 c-28 -11 -178 -143 -182 -161 -3 -10 -2 -27 3 -39 10
-28 176 -163 200 -163 25 0 69 43 69 67 0 9 -25 41 -55 69 l-55 52 45 33 c53
41 68 69 55 103 -13 36 -46 52 -80 39z"/>
<path d="M13302 10923 c-28 -24 -152 -255 -152 -283 0 -50 48 -82 89 -60 24
12 161 263 161 293 0 28 -9 41 -37 56 -29 15 -37 14 -61 -6z"/>
<path d="M13455 10928 c-27 -15 -35 -28 -35 -60 0 -19 13 -38 51 -70 l51 -44
-51 -43 c-52 -44 -62 -71 -41 -111 12 -22 54 -34 79 -21 33 18 166 133 175
151 17 36 -3 65 -94 138 -50 39 -97 72 -103 72 -7 0 -21 -6 -32 -12z"/>
<path d="M12971 10056 c-56 -31 -66 -99 -22 -148 l29 -33 391 -3 c340 -2 396
-1 425 13 71 34 74 135 5 171 -39 20 -792 20 -828 0z"/>
<path d="M16339 10042 c-23 -21 -31 -37 -32 -64 -1 -42 24 -85 59 -98 15 -6
188 -10 405 -10 319 0 385 2 409 15 61 32 72 112 21 157 l-31 28 -400 0 -400
0 -31 -28z"/>
<path d="M14055 10035 c-41 -40 -29 -121 22 -144 26 -12 1977 -17 2008 -5 22
9 45 57 45 94 0 19 -9 40 -25 55 l-24 25 -1001 0 -1001 0 -24 -25z"/>
<path d="M14573 9626 c-61 -28 -74 -107 -24 -157 l29 -29 171 0 c162 0 171 1
196 23 17 14 28 36 32 63 5 36 1 46 -25 75 l-30 34 -159 2 c-119 2 -166 -1
-190 -11z"/>
<path d="M15173 9625 c-61 -26 -74 -106 -24 -156 l29 -29 996 0 996 0 31 28
c53 47 39 130 -26 158 -50 21 -1954 20 -2002 -1z"/>
<path d="M12974 9618 c-53 -25 -59 -116 -11 -152 28 -21 36 -21 678 -23 562
-3 654 -1 679 12 60 31 70 107 19 149 l-31 26 -656 -1 c-431 0 -664 -4 -678
-11z"/>
<path d="M12949 9231 c-40 -40 -40 -89 0 -133 l29 -33 407 0 407 0 29 33 c40
44 40 93 0 133 l-29 29 -407 0 -407 0 -29 -29z"/>
<path d="M14055 9237 c-17 -14 -28 -36 -32 -63 -5 -36 -1 -46 25 -75 l30 -34
995 0 c990 0 996 0 1023 21 52 38 56 103 9 150 l-24 24 -1000 0 -1000 0 -26
-23z"/>
<path d="M16364 9246 c-59 -26 -69 -115 -17 -156 25 -19 40 -20 417 -20 370 0
393 1 423 20 61 37 49 135 -19 159 -17 6 -183 10 -401 10 -291 0 -379 -2 -403
-13z"/>
<path d="M12993 8843 c-12 -2 -34 -18 -48 -34 -35 -43 -34 -92 4 -130 l29 -29
172 0 172 0 29 29 c51 51 33 137 -33 160 -29 10 -277 13 -325 4z"/>
<path d="M15820 8839 c-38 -16 -59 -39 -66 -74 -7 -37 15 -89 45 -105 11 -6
91 -10 186 -10 188 0 207 6 226 70 10 33 9 43 -8 72 -11 20 -32 38 -53 45 -42
14 -295 16 -330 2z"/>
<path d="M16360 8832 c-49 -24 -68 -77 -45 -125 9 -19 27 -39 41 -46 17 -8
146 -11 419 -11 l395 0 31 28 c57 51 36 141 -38 161 -23 7 -180 11 -403 11
-328 0 -369 -2 -400 -18z"/>
<path d="M13559 8811 c-37 -38 -39 -88 -5 -128 l24 -28 969 -3 c532 -2 983 0
1002 3 80 15 108 99 52 156 l-29 29 -992 0 -992 0 -29 -29z"/>
<path d="M16230 7648 c-20 -21 -20 -32 -20 -635 l0 -614 25 -24 24 -25 974 0
c971 0 974 0 1001 21 l26 20 0 620 c0 606 0 619 -20 639 -20 20 -33 20 -1005
20 l-984 0 -21 -22z m1900 -638 l0 -530 -895 0 -895 0 0 530 0 530 895 0 895
0 0 -530z"/>
<path d="M17026 7258 c-13 -19 -16 -61 -16 -258 0 -256 5 -280 55 -280 46 0
55 22 55 141 l0 109 120 0 120 0 0 -109 c0 -119 9 -141 55 -141 53 0 55 11 55
280 0 269 -2 280 -54 280 -44 0 -56 -28 -56 -128 l0 -92 -120 0 -120 0 0 94
c0 73 -4 98 -16 110 -22 23 -60 20 -78 -6z"/>
<path d="M16516 7248 c-13 -19 -16 -61 -16 -253 0 -256 4 -275 60 -275 41 0
50 23 50 128 l0 90 98 4 c118 4 156 22 190 88 43 83 14 183 -63 220 -35 17
-62 20 -173 20 -124 0 -132 -1 -146 -22z m244 -71 c34 -17 54 -60 43 -95 -13
-38 -65 -62 -135 -62 l-58 0 0 85 0 85 63 0 c34 0 73 -6 87 -13z"/>
<path d="M17607 7252 c-15 -16 -17 -49 -17 -260 0 -260 2 -272 54 -272 44 0
56 28 56 127 l0 91 98 4 c80 3 104 8 135 27 106 65 94 239 -20 287 -22 10 -74
14 -161 14 -112 0 -131 -2 -145 -18z m262 -86 c15 -14 21 -31 21 -62 0 -58
-29 -77 -122 -82 l-68 -4 0 87 0 87 74 -4 c55 -2 80 -8 95 -22z"/>
</g>
</svg>
