<?xml version="1.0" standalone="no"?>
<!DOCTYPE svg PUBLIC "-//W3C//DTD SVG 20010904//EN"
 "http://www.w3.org/TR/2001/REC-SVG-20010904/DTD/svg10.dtd">
<svg version="1.0" xmlns="http://www.w3.org/2000/svg"
 width="500.000000pt" height="500.000000pt" viewBox="0 0 500.000000 500.000000"
 preserveAspectRatio="xMidYMid meet">

<g transform="translate(0.000000,500.000000) scale(0.100000,-0.100000)"
fill="#11998e" stroke="none">
<path d="M2836 1984 c-8 -20 11 -44 34 -44 10 0 23 6 29 14 18 21 2 46 -29 46
-17 0 -30 -7 -34 -16z"/>
<path d="M3460 1875 l0 -125 35 0 35 0 0 125 0 125 -35 0 -35 0 0 -125z"/>
<path d="M1355 1983 c-34 -9 -55 -35 -55 -69 0 -35 16 -56 61 -79 40 -21 38
-39 -3 -32 -18 3 -41 9 -51 13 -16 6 -18 2 -15 -27 3 -32 6 -35 50 -43 38 -7
52 -6 80 11 57 33 51 101 -12 133 -41 21 -52 40 -24 40 8 0 24 -5 35 -10 16
-9 21 -6 31 15 7 16 8 29 2 34 -12 12 -74 21 -99 14z"/>
<path d="M2406 1873 c-20 -59 -36 -111 -36 -116 0 -4 16 -7 36 -7 27 0 37 5
41 20 4 15 14 20 38 20 25 0 35 -5 40 -20 5 -15 15 -20 45 -20 l39 0 -38 113
-38 112 -45 3 -46 3 -36 -108z m93 -5 c1 -10 -6 -18 -15 -18 -11 0 -14 5 -10
16 3 9 6 25 7 37 0 21 1 21 9 2 5 -11 9 -28 9 -37z"/>
<path d="M2178 1946 c-11 -25 -38 -43 -38 -26 0 14 -43 13 -57 -1 -8 -8 -13
-8 -17 0 -4 6 -18 11 -32 11 -24 0 -24 -1 -24 -90 l0 -90 35 0 35 0 0 54 c0
61 0 61 53 70 l37 7 0 -53 c0 -29 4 -58 8 -64 11 -17 50 -27 78 -20 31 8 35
56 4 56 -17 0 -20 7 -20 40 0 33 3 40 20 40 15 0 20 7 20 25 0 18 -5 25 -19
25 -10 0 -21 9 -24 20 -7 29 -45 26 -59 -4z"/>
<path d="M1490 1839 l0 -89 35 0 35 0 0 59 c0 55 12 83 28 67 3 -4 8 -33 10
-66 l4 -60 34 0 33 0 3 62 c2 38 8 63 16 66 9 3 12 -14 12 -62 l0 -66 35 0 35
0 0 78 c0 47 -5 83 -12 90 -15 15 -84 16 -93 2 -5 -7 -11 -8 -19 -1 -6 5 -44
10 -84 9 l-72 0 0 -89z"/>
<path d="M1825 1920 c-3 -6 -4 -19 0 -29 5 -16 13 -19 43 -15 34 4 34 3 -13
-13 -47 -17 -50 -20 -53 -55 -3 -30 1 -40 22 -53 19 -12 34 -15 53 -9 16 4 43
7 61 5 l32 -3 0 76 c0 93 -10 106 -85 106 -30 0 -57 -5 -60 -10z m75 -110 c0
-5 -7 -10 -15 -10 -8 0 -15 5 -15 10 0 6 7 10 15 10 8 0 15 -4 15 -10z"/>
<path d="M2620 1839 l0 -89 35 0 34 0 3 63 c2 47 7 62 18 62 11 0 16 -15 18
-62 l3 -63 34 0 35 0 0 73 c0 96 -10 105 -107 105 l-73 0 0 -89z"/>
<path d="M2830 1840 l0 -90 35 0 35 0 0 90 0 90 -35 0 -35 0 0 -90z"/>
<path d="M2940 1839 l0 -89 35 0 35 0 0 59 c0 55 12 83 28 67 3 -4 8 -33 10
-66 l4 -60 34 0 33 0 3 62 c2 38 8 63 16 66 9 3 12 -14 12 -62 l0 -66 35 0 35
0 0 78 c0 47 -5 83 -12 90 -15 15 -84 16 -93 2 -5 -7 -11 -8 -19 -1 -6 5 -44
10 -84 9 l-72 0 0 -89z"/>
<path d="M3283 1922 c-7 -4 -10 -17 -7 -29 5 -18 12 -21 42 -17 l37 4 -36 -13
c-54 -18 -70 -36 -67 -71 2 -21 11 -35 31 -46 25 -14 30 -13 57 2 17 9 30 13
30 8 0 -6 14 -10 31 -10 l31 0 -4 76 c-3 60 -7 79 -23 90 -20 15 -102 19 -122
6z m67 -117 c-12 -15 -30 -12 -30 6 0 5 10 9 21 9 18 0 19 -2 9 -15z"/>
<path d="M3576 1914 c-33 -33 -14 -79 44 -104 22 -9 20 -10 -17 -6 -41 4 -43
3 -43 -24 0 -23 5 -30 30 -35 72 -16 135 29 111 81 -6 14 -26 32 -44 40 l-32
15 32 -5 c25 -4 33 -1 38 14 3 11 3 24 0 30 -10 16 -102 12 -119 -6z"/>
<path d="M1955 1588 c-26 -118 -28 -146 -6 -122 7 8 31 112 31 136 0 18 -20 7
-25 -14z"/>
<path d="M3158 1588 c-2 -16 -10 -23 -26 -24 -33 -2 -53 -25 -54 -63 -1 -38
12 -49 51 -43 26 4 30 9 40 60 6 30 11 64 11 74 0 26 -18 22 -22 -4z m-18 -62
c0 -25 -12 -46 -26 -46 -15 0 -18 18 -8 44 8 20 34 21 34 2z"/>
<path d="M1848 1538 c-18 -35 -34 -66 -36 -70 -2 -5 3 -8 11 -8 9 0 19 9 22
20 3 11 15 20 25 20 10 0 22 -9 25 -20 3 -11 11 -20 16 -20 9 0 2 114 -8 133
-10 18 -25 3 -55 -55z m38 -15 c-11 -11 -17 4 -9 23 7 18 8 18 11 1 2 -10 1
-21 -2 -24z"/>
<path d="M2133 1544 c-43 -43 -23 -97 33 -86 29 5 30 6 39 58 6 39 5 42 -21
47 -20 3 -33 -2 -51 -19z m47 -22 c0 -19 -18 -42 -32 -42 -10 0 -11 44 -1 53
13 14 33 7 33 -11z"/>
<path d="M2328 1559 c-24 -14 -22 -37 5 -60 l22 -18 -27 -1 c-30 0 -37 -14
-12 -24 22 -8 54 11 54 33 0 10 -10 26 -22 34 l-23 16 28 0 c30 1 36 15 11 25
-19 7 -15 8 -36 -5z"/>
<path d="M2454 1545 c-28 -28 -31 -57 -8 -79 21 -22 31 -20 59 9 36 35 32 73
-8 88 -12 5 -26 -1 -43 -18z m44 -32 c-4 -36 -38 -45 -38 -10 0 27 7 37 27 37
10 0 13 -9 11 -27z"/>
<path d="M2579 1562 c-22 -2 -27 -10 -35 -52 -13 -63 7 -70 25 -10 7 23 18 40
27 40 11 0 13 -9 8 -40 -4 -25 -3 -40 4 -40 21 0 31 95 10 102 -7 2 -25 2 -39
0z"/>
<path d="M2718 1559 c-10 -5 -18 -21 -18 -35 0 -14 -7 -39 -16 -55 -17 -35 -6
-59 28 -59 56 0 81 54 31 66 -25 7 -26 8 -6 15 26 9 59 69 38 69 -7 0 -19 2
-27 5 -7 2 -21 0 -30 -6z m30 -31 c-6 -18 -28 -21 -28 -4 0 9 7 16 16 16 9 0
14 -5 12 -12z m-10 -80 c-7 -19 -38 -22 -38 -4 0 10 9 16 21 16 12 0 19 -5 17
-12z"/>
<path d="M2921 1553 c-14 -12 -23 -30 -23 -52 -1 -38 11 -49 50 -43 25 3 30
10 38 53 8 38 8 49 -2 49 -7 0 -19 2 -27 5 -7 3 -24 -2 -36 -12z m39 -27 c0
-25 -12 -46 -26 -46 -15 0 -18 18 -8 44 8 20 34 21 34 2z"/>
<path d="M3040 1560 c-24 -6 -35 -30 -39 -82 -2 -29 18 -21 25 10 3 15 17 37
31 48 28 24 21 34 -17 24z"/>
<path d="M1980 1510 c0 -42 3 -50 19 -50 12 0 21 10 26 28 l7 27 10 -27 c14
-41 33 -34 56 22 16 39 18 50 7 50 -7 0 -17 -9 -20 -20 -3 -11 -11 -20 -16
-20 -5 0 -9 9 -9 20 0 30 -27 24 -38 -7 l-10 -28 -1 28 c-1 17 -6 27 -16 27
-11 0 -15 -12 -15 -50z"/>
<path d="M2225 1506 c6 -49 5 -56 -14 -68 -27 -17 -27 -30 1 -26 26 4 110 148
86 148 -8 0 -21 -15 -30 -32 l-15 -33 -7 33 c-13 54 -28 38 -21 -22z"/>
<path d="M2794 1514 c-7 -48 6 -69 34 -59 8 3 20 5 27 5 7 0 16 15 20 33 4 17
9 40 11 50 4 11 0 17 -10 17 -9 0 -16 -9 -16 -21 0 -29 -18 -59 -36 -59 -14 0
-13 19 2 68 2 6 -3 12 -11 12 -9 0 -16 -16 -21 -46z"/>
</g>
</svg>
